<svg viewBox="0 0 70 70" version="1.1" xmlns="http://www.w3.org/2000/svg" xmlns:xlink="http://www.w3.org/1999/xlink" xmlns:sketch="http://www.bohemiancoding.com/sketch/ns">
    <g id="Page-1" stroke="none" stroke-width="1" fill="none" fill-rule="evenodd" sketch:type="MSPage">
        <g id="Group" sketch:type="MSLayerGroup">
            <rect id="bg" fill="#FFE4E1" sketch:type="MSShapeGroup" x="0" y="0" width="70" height="70"></rect>
            <path d="M58.9,27.4 L58.9,5.2 C58.9,4.5 58.3,4 57.7,4 L57.7,4 C57,4 56.5,4.6 56.5,5.2 L56.5,27.4 C52.8,28 50,31.2 50,35 C50,38.9 52.8,42.1 56.5,42.7 L56.5,65.7 C56.5,66.4 57.1,66.9 57.7,66.9 L57.7,66.9 C58.4,66.9 58.9,66.3 58.9,65.7 L58.9,42.7 C62.6,42.1 65.4,38.9 65.4,35 C65.5,31.2 62.6,28 58.9,27.4 L58.9,27.4 L58.9,27.4 L58.9,27.4 L58.9,27.4 L58.9,27.4 Z M58.9,40.2 C58.5,40.3 58.1,40.4 57.7,40.4 C57.3,40.4 56.9,40.4 56.5,40.2 C54.2,39.6 52.5,37.6 52.5,35.1 C52.5,32.6 54.2,30.6 56.5,30 C56.9,29.9 57.3,29.8 57.7,29.8 C58.1,29.8 58.5,29.9 58.9,30 C61.2,30.5 62.9,32.6 62.9,35.1 C62.9,37.5 61.2,39.6 58.9,40.2 L58.9,40.2 L58.9,40.2 L58.9,40.2 L58.9,40.2 L58.9,40.2 Z" id="track-4" fill="#000000" sketch:type="MSShapeGroup"></path>
            <path d="M40.7,25.6 L40.7,65.7 C40.7,66.4 41.3,66.9 41.9,66.9 L41.9,66.9 C42.6,66.9 43.1,66.3 43.1,65.7 L43.1,25.6 C46.8,25 49.6,21.8 49.6,17.9 C49.6,14.1 46.8,10.9 43.1,10.3 L43.1,5.2 C43.1,4.5 42.5,4 41.9,4 L41.9,4 C41.2,4 40.7,4.6 40.7,5.2 L40.7,10.3 C37,10.9 34.2,14.1 34.2,17.9 C34.2,21.8 37,24.9 40.7,25.6 L40.7,25.6 L40.7,25.6 L40.7,25.6 L40.7,25.6 L40.7,25.6 Z M40.7,12.8 C41.1,12.7 41.5,12.6 41.9,12.6 C42.3,12.6 42.8,12.6 43.1,12.8 C45.4,13.3 47.1,15.4 47.1,17.9 C47.1,20.4 45.4,22.4 43.1,23 C42.7,23.1 42.3,23.2 41.9,23.2 C41.5,23.2 41.1,23.2 40.7,23 C38.4,22.5 36.7,20.4 36.7,17.9 C36.7,15.4 38.4,13.4 40.7,12.8 L40.7,12.8 L40.7,12.8 L40.7,12.8 L40.7,12.8 L40.7,12.8 Z" id="track-3" fill="#000000" sketch:type="MSShapeGroup"></path>
            <path d="M27.9,27.4 L27.9,5.2 C27.9,4.5 27.3,4 26.7,4 L26.7,4 C26,4 25.5,4.6 25.5,5.2 L25.5,27.4 C21.8,28 19,31.2 19,35 C19,38.9 21.8,42.1 25.5,42.7 L25.5,65.7 C25.5,66.4 26.1,66.9 26.7,66.9 L26.7,66.9 C27.4,66.9 27.9,66.3 27.9,65.7 L27.9,42.7 C31.6,42.1 34.4,38.9 34.4,35 C34.5,31.2 31.6,28 27.9,27.4 L27.9,27.4 L27.9,27.4 L27.9,27.4 L27.9,27.4 L27.9,27.4 Z M27.9,40.2 C27.5,40.3 27.1,40.4 26.7,40.4 C26.3,40.4 25.9,40.4 25.5,40.2 C23.2,39.6 21.5,37.6 21.5,35.1 C21.5,32.6 23.2,30.6 25.5,30 C25.9,29.9 26.3,29.8 26.7,29.8 C27.1,29.8 27.5,29.9 27.9,30 C30.2,30.5 31.9,32.6 31.9,35.1 C31.9,37.5 30.2,39.6 27.9,40.2 L27.9,40.2 L27.9,40.2 L27.9,40.2 L27.9,40.2 L27.9,40.2 Z" id="track-2" fill="#000000" sketch:type="MSShapeGroup"></path>
            <path d="M12.9,8.3 L12.9,4.2 C12.9,3.5 12.3,3 11.7,3 L11.7,3 C11,3 10.5,3.6 10.5,4.2 L10.5,8.3 C6.8,8.9 4,12.1 4,16 C4,19.8 6.8,23 10.5,23.6 L10.5,64.7 C10.5,65.4 11.1,65.9 11.7,65.9 L11.7,65.9 C12.4,65.9 12.9,65.3 12.9,64.7 L12.9,23.6 C16.6,23 19.4,19.8 19.4,16 C19.4,12.1 16.6,9 12.9,8.3 L12.9,8.3 L12.9,8.3 L12.9,8.3 L12.9,8.3 L12.9,8.3 Z M12.9,21.1 C12.5,21.2 12.1,21.3 11.7,21.3 C11.3,21.3 10.9,21.3 10.5,21.1 C8.2,20.6 6.5,18.5 6.5,16 C6.5,13.5 8.2,11.5 10.5,10.9 C10.9,10.8 11.3,10.7 11.7,10.7 C12.1,10.7 12.6,10.7 12.9,10.9 C15.2,11.4 16.9,13.5 16.9,16 C16.9,18.5 15.2,20.5 12.9,21.1 L12.9,21.1 L12.9,21.1 L12.9,21.1 L12.9,21.1 L12.9,21.1 Z" id="track-1" fill="#000000" sketch:type="MSShapeGroup"></path>
        </g>
    </g>
</svg>
